<?xml version="1.0" encoding="UTF-8"?>
<svg width="160px" height="73px" viewBox="0 0 160 73" version="1.1" xmlns="http://www.w3.org/2000/svg" xmlns:xlink="http://www.w3.org/1999/xlink">
    <!-- Generator: Sketch 52.6 (67491) - http://www.bohemiancoding.com/sketch -->
    <title>PrimeAsia Logo</title>
    <desc>Created with Sketch.</desc>
    <g id="Page-1" stroke="none" stroke-width="1" fill="none" fill-rule="evenodd">
        <g id="00_index_a-1" transform="translate(-1308.000000, -4397.000000)" fill="#FFFFFF">
            <g id="Group-22" transform="translate(0.000000, 4314.000000)">
                <g id="PrimeAsia-Logo" transform="translate(1308.000000, 83.000000)">
                    <path d="M11.566614,26.529723 L51.9480754,26.529723 C59.5493962,26.529723 61.8887105,18.4894692 61.8887105,15.2707393 C61.8887105,8.23630484 56.9016188,5.31948274 50.5929052,5.31948274 L11.566614,5.31948274 L11.566614,26.529723 Z M11.4699586,30.966886 L11.4699586,48.4462151 L1.2749004,48.4462151 L1.2749004,0 L57.5140114,0 C66.9592197,0 72.6693227,6.00395118 72.6693227,15.5170183 C72.6693227,19.902333 70.2215658,30.966886 57.1039967,30.966886 L11.4699586,30.966886 Z" id="Shape"></path>
                    <path d="M16.5737052,49.0836653 L20.6155954,49.0836653 L20.6155954,41.3242276 C20.6155954,39.6717983 21.1945266,37.7656637 24.3405186,37.7656637 C24.7177095,37.7656637 25.1508357,37.7656637 25.498008,37.824072 L25.498008,33.845258 C25.2386543,33.8165059 24.9772496,33.7848606 24.7177095,33.7848606 C22.264011,33.7848606 21.340145,35.2439821 20.4998092,36.7577144 L20.4395855,36.7577144 L20.4395855,34.1821452 L16.5737052,34.1821452 L16.5737052,49.0836653 Z" id="Path"></path>
                    <rect id="Rectangle" x="28.0478088" y="33.7848606" width="3.8247012" height="14.6613546"></rect>
                    <path d="M57.3705179,38.7739157 C57.3705179,35.5001986 55.0656439,33.7848606 52.1067461,33.7848606 C49.6922561,33.7848606 48.5821416,35.4398019 48.0715183,36.1716144 C47.0456813,34.5705599 46.0492222,33.7848606 43.8587382,33.7848606 C41.1866414,33.7848606 40.0765268,35.3877234 39.5681068,36.3669091 L39.5088003,36.3669091 L39.5088003,34.1823214 L35.6972112,34.1823214 L35.6972112,49.0834845 L39.6821295,49.0834845 L39.6821295,40.008612 C39.6821295,38.3784441 40.2770305,37.0922117 42.153539,37.0922117 C44.5423234,37.0922117 44.5423234,38.8590859 44.5423234,40.1205447 L44.5423234,49.0834845 L48.527609,49.0834845 L48.527609,40.1435099 C48.527609,38.3786249 49.2343293,37.0923926 51.2268803,37.0923926 C52.3915274,37.0923926 53.3879865,37.824205 53.3879865,40.0310347 L53.3879865,49.0836653 L57.3705179,49.0836653 L57.3705179,38.7739157 Z" id="Path"></path>
                    <path d="M69.1409143,44.2522813 C68.8383729,45.3337205 67.7255296,45.9040208 66.6417217,45.9040208 C63.5017795,45.9040208 63.2836557,43.3398743 63.1727119,42.1992737 L73.3067729,42.1992737 L73.3067729,41.496871 C73.3067729,34.5777543 69.2834027,33.1474104 66.3639141,33.1474104 C59.8969128,33.1474104 59.2828685,38.9872926 59.2828685,40.807697 C59.2828685,47.0396606 62.4762215,49.0836653 66.6419009,49.0836653 C69.1676196,49.0836653 72.109512,47.89309 73.1400884,44.2522813 L69.1409143,44.2522813 Z M63.2836557,39.6081188 C63.5019587,37.6184984 64.4766151,36.4233298 66.3103242,36.4233298 C67.5565151,36.4233298 69.0875035,37.1624787 69.3079573,39.6081188 L63.2836557,39.6081188 Z" id="Shape"></path>
                    <path d="M89.2115928,39.0975632 L107.051389,39.0975632 L110.148257,49.0834839 L121.115538,49.0836653 L104.093717,0.637450199 L92.4476557,0.637450199 L75.2191235,49.0836653 L85.8491863,49.0836653 L89.2115928,39.0975632 Z M98.1019868,11.5652334 L98.2370188,11.5652334 L104.224043,30.7291417 L91.9084325,30.7291417 L98.1019868,11.5652334 Z" id="Shape"></path>
                    <path d="M135.316934,38.157197 C135.000112,33.8957457 131.450065,33.1474104 128.465708,33.1474104 C123.707069,33.1474104 122.29979,35.9989118 122.29979,38.216542 C122.29979,43.8782054 131.762815,41.9712639 131.762815,44.5034412 C131.762815,45.0737415 131.275267,46.0680924 129.21064,46.0680924 C126.681982,46.0680924 125.8815,45.1327191 125.8815,43.8510133 L121.752988,43.8510133 C121.867607,47.89309 125.624486,49.0836653 129.096021,49.0836653 C131.47747,49.0836653 135.776892,48.2857226 135.776892,43.8780217 C135.776892,38.3028955 126.226654,40.031802 126.226654,37.646058 C126.226654,36.9934464 126.516257,36.1679441 128.691058,36.1679441 C130.875488,36.1679441 131.215828,37.1920593 131.390441,38.1570133 L135.316934,38.1570133 L135.316934,38.157197 Z" id="Path"></path>
                    <rect id="Rectangle" x="138.964143" y="33.7848606" width="3.8247012" height="14.6613546"></rect>
                    <path d="M158.487033,37.5342992 C158.487033,33.7998308 154.635487,33.1474104 152.517882,33.1474104 C149.447664,33.1474104 146.264166,33.7998308 145.817407,38.4446746 L149.619131,38.4446746 C149.731684,37.5642469 150.066254,36.3413491 152.043667,36.3413491 C153.055011,36.3413491 154.635487,36.4232921 154.635487,38.1022044 C154.635487,38.9556239 153.872706,39.210823 153.249389,39.2973592 L149.705137,39.8360516 C147.198959,40.2055299 145.338645,41.7203725 145.338645,44.6811596 C145.338645,47.8063838 147.6459,49.0836653 149.903515,49.0836653 C152.576614,49.0836653 153.840522,47.8381689 154.743677,46.8987643 C154.829683,47.7470395 154.888232,47.9750467 155.114066,48.6915884 L159.36255,48.6915884 L159.36255,48.0895097 C158.884152,47.92544 158.486851,47.5236254 158.486851,45.7355783 L158.486851,37.5342992 L158.487033,37.5342992 Z M154.635487,43.2576301 C154.635487,45.105389 152.856634,46.241567 151.109237,46.241567 C150.350274,46.241567 149.276016,45.8173375 149.276016,44.4211836 C149.276016,42.7694631 150.490647,42.404578 151.957661,42.148644 C153.592322,41.8888517 154.24255,41.6286919 154.635487,41.318558 L154.635487,43.2576301 Z" id="Shape"></path>
                    <path d="M22.310757,16.2537837 C22.310757,11.1508055 26.4489729,7.01195219 31.5561774,7.01195219 C36.6585968,7.01195219 40.7968127,11.1506214 40.7968127,16.2537837 C40.7968127,21.3593388 36.6585968,25.498008 31.5561774,25.498008 C26.449157,25.498008 22.310757,21.3591547 22.310757,16.2537837" id="Path"></path>
                    <path d="M131.314741,16.2537837 C131.314741,11.1508055 135.455308,7.01195219 140.559885,7.01195219 C145.655628,7.01195219 149.800797,11.1506214 149.800797,16.2537837 C149.800797,21.3593388 145.655628,25.498008 140.559885,25.498008 C135.455308,25.498008 131.314741,21.3591547 131.314741,16.2537837" id="Path"></path>
                    <rect id="Rectangle" x="0" y="54.8207171" width="160" height="2.5498008"></rect>
                    <path d="M4.42459104,62.4701195 C2.2332307,62.4701195 0.637450199,64.1046591 0.637450199,66.2465329 C0.637450199,67.776259 1.50143462,69.0318148 2.91303026,69.5750064 C3.29714539,69.7119995 3.67906349,69.7895983 3.9562562,69.8355692 C4.25175754,69.8809884 4.34732861,69.9041577 4.66571575,70.2279763 C5.06118223,70.6113732 5.76130438,71.2281182 6.63426002,71.6387298 C7.26151381,71.9263234 7.86624797,72.0318725 8.35728553,72.0318725 C8.73023239,72.0318725 9.20772155,71.9496766 9.54844522,71.7531053 C9.57810521,71.698308 9.55741645,71.6071019 9.49406858,71.5934945 C9.3437547,71.662083 9.08944778,71.6937109 8.98490548,71.6937109 C8.73700658,71.6937109 8.38914255,71.6709094 7.99349298,71.5385133 C7.14324004,71.2643432 6.16592518,70.3875871 5.62472197,69.8627839 C5.56100793,69.7987925 5.51798264,69.7579704 5.53848831,69.7075863 C7.02972651,69.2556009 8.11176675,67.9036901 8.11176675,66.1367545 C8.11176675,64.2598567 6.87959571,62.4701195 4.42459104,62.4701195 M4.56099036,69.5343682 C2.465018,69.5343682 1.70118181,67.4840682 1.70118181,65.9039582 C1.70118181,63.5660646 3.13804337,62.8082811 4.24260323,62.8082811 C6.27046748,62.8082811 7.04785206,64.7077966 7.04785206,66.4659058 C7.04785206,68.5704514 5.83838372,69.5343682 4.56099036,69.5343682" id="Shape"></path>
                    <path d="M14.7360571,66.5709162 C14.7360571,67.9991848 14.2411144,69.0706138 12.9342629,69.0706138 C11.5494373,69.0706138 11.0978524,68.0758325 11.0978524,66.561267 L11.0978524,64.5358383 C11.0978524,63.5550757 11.1174333,63.4014162 11.6406984,63.347162 L11.857662,63.329138 C11.9143068,63.2927258 11.894551,63.1390663 11.8403538,63.1075697 C11.3996083,63.1210422 11.0978524,63.1390663 10.7310598,63.1390663 C10.3684631,63.1390663 10.064784,63.1210422 9.61319907,63.1075697 C9.55882706,63.1390663 9.53924614,63.2927258 9.59571611,63.329138 L9.81932321,63.347162 C10.3425883,63.4014162 10.3619944,63.5552577 10.3619944,64.5358383 L10.3619944,66.7513387 C10.3619944,67.8728345 10.5856015,68.5597507 11.0630613,68.9712085 C11.5080027,69.3642782 12.1310955,69.4820717 12.7519156,69.4820717 C13.4204641,69.4820717 14.0846419,69.2426615 14.4755609,68.7991609 C14.9832662,68.2344076 15.1051225,67.3754438 15.1051225,66.5567155 L15.1051225,65.4947536 C15.1051225,64.9655023 15.0986538,63.8900679 15.2351957,63.5730997 C15.2789031,63.4509368 15.4610756,63.3695555 15.6845079,63.347162 L15.9018211,63.329138 C15.9451789,63.2701502 15.9560183,63.1479873 15.8843382,63.1075697 C15.5567074,63.1210422 15.3157922,63.1390663 14.9358874,63.1390663 C14.584305,63.1390663 14.2498559,63.1210422 13.9089381,63.1075697 C13.8547409,63.1436178 13.8374328,63.2657807 13.889532,63.329138 L14.1152371,63.347162 C14.339019,63.3697376 14.5016106,63.4374643 14.566822,63.5507062 C14.7189238,63.8267107 14.7362319,64.9116122 14.7362319,65.4947536 L14.7362319,66.5709162 L14.7360571,66.5709162 Z" id="Path"></path>
                    <path d="M21.1222684,68.5558605 C21.1956542,68.7774526 21.2463033,68.9491955 21.2463033,69.048348 C21.2463033,69.1436799 21.1130258,69.2020797 20.9113536,69.2202729 L20.6357409,69.2471987 C20.5667916,69.2970478 20.5784372,69.4460494 20.654226,69.4820717 C20.9294689,69.4731571 21.2921463,69.4505976 21.7513159,69.4505976 C22.1779516,69.4505976 22.5130863,69.4686088 22.9057095,69.4820717 C22.9515525,69.4460494 22.9722558,69.2972297 22.9057095,69.2471987 L22.650985,69.2202729 C22.2380282,69.174972 22.1141781,69.0303368 21.8363473,68.2263832 L20.5303759,64.4451272 C20.3880408,64.033781 20.2342449,63.6046055 20.1127978,63.1888929 C20.0922794,63.1210326 20.02333,63.1075697 19.9658414,63.1075697 C19.8625098,63.2296455 19.7018744,63.39211 19.4722896,63.4601522 C19.4976142,63.6137021 19.4427135,63.7896294 19.309436,64.1331153 L18.331575,66.6674156 C17.9347002,67.7158846 17.665927,68.330084 17.4962339,68.7592594 C17.3629565,69.0981971 17.1518568,69.2020797 16.9224569,69.2202729 L16.6104286,69.2471987 C16.5507218,69.2970478 16.5688372,69.4460494 16.6287289,69.4820717 C16.8858564,69.4731571 17.2298638,69.4505976 17.5422618,69.4505976 C17.9920039,69.4686088 18.285732,69.4686088 18.53602,69.4820717 C18.6208666,69.4460494 18.6208666,69.2972297 18.5545051,69.2471987 L18.242292,69.2202729 C18.0106739,69.2018978 17.9644612,69.1436799 17.9644612,69.0303368 C17.9644612,68.9266361 18.0334105,68.6779362 18.1733426,68.2487608 L18.5060742,67.2686979 C18.5750235,67.0652989 18.6325122,67.0423756 18.8687516,67.0423756 L20.3100337,67.0423756 C20.594704,67.0423756 20.6359258,67.0652989 20.7002539,67.2776125 L21.1222684,68.5558605 Z M19.4149859,64.8109906 C19.5183175,64.5219021 19.6122217,64.2955798 19.6421676,64.2506428 L19.6582496,64.2506428 C19.7177716,64.3632582 19.805206,64.6165063 19.8832131,64.8468311 L20.3972833,66.3737788 C20.4799117,66.6270269 20.4614266,66.6674156 20.1859988,66.6674156 L19.0153383,66.6674156 C18.7469348,66.6674156 18.7354741,66.6539527 18.8110781,66.4416391 L19.4149859,64.8109906 Z" id="Shape"></path>
                    <path d="M25.1424534,68.0128163 C25.1424534,69.0215035 25.1233994,69.159878 24.5510174,69.2151536 L24.2602535,69.2426059 C24.1987091,69.2978815 24.219859,69.4499822 24.2791169,69.4820717 C24.8280625,69.4683456 25.1426439,69.4499822 25.5566872,69.4499822 L26.4651817,69.4499822 C27.4777109,69.4499822 28.4098323,69.4683456 28.9113334,69.4820717 C29.0483316,69.2197908 29.3227092,68.2474594 29.3227092,68.1372792 C29.3227092,68.0773664 29.138457,68.0406396 29.0814856,68.0864553 C28.8827524,68.5748469 28.6272384,68.9159604 28.4285052,69.0307779 C28.272453,69.1227803 28.0640023,69.159878 27.2290563,69.159878 C26.4507006,69.159878 26.2664485,69.0398668 26.1551732,68.9387755 C25.97759,68.7543998 25.9516765,68.5102968 25.9516765,67.9026361 L25.9516765,64.5725589 C25.9516765,63.5636862 25.9707305,63.4117711 26.5501625,63.3653989 L26.7868131,63.3425838 C26.843594,63.3054861 26.8272076,63.1396593 26.7679496,63.1075697 C26.275785,63.1212959 25.9446265,63.1396593 25.5566872,63.1396593 C25.1637939,63.1396593 24.8280625,63.1212959 24.2791169,63.1075697 C24.2196685,63.1396593 24.1987091,63.3053006 24.2602535,63.3425838 L24.5039541,63.3653989 C25.1235899,63.4117711 25.1426439,63.5636862 25.1426439,64.5725589 L25.1426439,68.0128163 L25.1424534,68.0128163 Z" id="Path"></path>
                    <path d="M30.8354377,67.998991 C30.8354377,69.0124419 30.8167246,69.1459859 30.2392647,69.2151691 L29.9952383,69.2426198 C29.9364527,69.2978922 29.9576231,69.449984 30.0139514,69.4820717 C30.5046505,69.4683464 30.8354377,69.449984 31.2437236,69.449984 C31.6332964,69.449984 31.9665408,69.4683464 32.4545937,69.4820717 C32.5156475,69.449984 32.5322814,69.2793444 32.4734958,69.2426198 L32.2319267,69.2151691 C31.656924,69.1459859 31.6332964,69.0124419 31.6332964,67.998991 L31.6332964,64.5952874 C31.6332964,63.5727481 31.656924,63.4117534 32.2319267,63.3653839 L32.4734958,63.3425701 C32.5322814,63.3054746 32.5156475,63.1396574 32.4545937,63.1075697 C31.9663518,63.1212951 31.6331074,63.1396574 31.2437236,63.1396574 C30.8352487,63.1396574 30.5046505,63.1212951 30.0139514,63.1075697 C29.9578121,63.1396574 29.9364527,63.3052891 29.9952383,63.3425701 L30.2392647,63.3653839 C30.8167246,63.4117534 30.8354377,63.5727481 30.8354377,64.5952874 L30.8354377,67.998991 Z" id="Path"></path>
                    <path d="M37.0053915,64.00518 C37.0053915,63.7052855 36.9969178,63.6877177 37.2630617,63.6877177 L37.8987633,63.6877177 C38.3883366,63.6877177 38.7274582,63.7626026 38.9335943,63.9255039 C39.0667527,64.0225704 39.1312567,64.3664732 39.1570238,64.591128 C39.2040615,64.6440088 39.3543403,64.6440088 39.388754,64.5691239 C39.3588365,64.3002834 39.4231676,63.5597745 39.5219124,63.1764772 C39.5027168,63.1496819 39.4062202,63.1322916 39.3590095,63.1541182 C39.2301744,63.3924368 39.1483771,63.4142635 38.6674505,63.4142635 L35.0517676,63.4142635 C34.6394954,63.4142635 34.3453364,63.4186998 34.2917271,63.1278553 C34.2659601,63.0927197 34.150095,63.1102875 34.1198318,63.1278553 C34.0596511,63.4935847 33.9264927,64.0798875 33.7848606,64.4892703 C33.8192742,64.5641552 33.943786,64.6083408 34.0167637,64.55546 C34.111358,64.3221101 34.2035313,64.1237183 34.4162389,63.9253265 C34.6394954,63.7093669 35.133219,63.6875402 35.5155739,63.6875402 L36.0051472,63.6875402 C36.2735392,63.6875402 36.2735392,63.705108 36.2735392,63.982821 L36.2735392,68.0764711 C36.2735392,69.0414573 36.2306518,69.1827095 35.7194619,69.2267177 L35.3974606,69.2529806 C35.3267311,69.3016026 35.3481747,69.4513724 35.3974606,69.4820717 C35.9709064,69.4689402 36.2801106,69.4513724 36.6384278,69.4513724 C36.9972637,69.4513724 37.2997235,69.4689402 37.8086653,69.4820717 C37.8601993,69.4513724 37.8797407,69.2881162 37.8259586,69.2529806 L37.5381981,69.2267177 C37.024933,69.1738368 37.0057374,69.0414573 37.0057374,68.0764711 L37.0057374,64.00518 L37.0053915,64.00518 Z" id="Path"></path>
                    <path d="M43.9834271,67.5014818 C43.9834271,66.764557 44.0035799,66.6632831 44.41905,65.9538098 L45.0020396,64.9084264 C45.4689712,64.0795018 45.7460712,63.4761249 46.2309963,63.397851 L46.4879436,63.342577 C46.5550594,63.2917546 46.5482218,63.1489325 46.4699501,63.1075697 C46.1572229,63.1212955 45.8979364,63.1396583 45.605362,63.1396583 C45.3192652,63.1396583 45.0513419,63.1212955 44.718462,63.1075697 C44.6423494,63.1442954 44.6311934,63.2733917 44.6983092,63.342577 L44.8660087,63.3653914 C45.0893082,63.397851 45.2525093,63.4573911 45.2525093,63.5219392 C45.2525093,63.6328582 44.9106326,64.2868721 44.6515261,64.7746929 C44.3701076,65.3368926 44.0660173,65.8892616 43.7801005,66.3960018 C43.4139326,65.7373509 43.071876,64.9867003 42.7301793,64.2731463 C42.6808771,64.1805902 42.439944,63.6326727 42.439944,63.5362215 C42.439944,63.4573911 42.5068798,63.4206654 42.8286038,63.3653914 L42.9536586,63.342577 C43.0049401,63.2917546 43.0049401,63.1396583 42.9223499,63.1075697 C42.6923929,63.1212955 42.3569939,63.1396583 41.9305478,63.1396583 C41.4837689,63.1396583 41.1485499,63.1212955 40.8491379,63.1075697 C40.7867004,63.1442954 40.7775237,63.2733917 40.8358227,63.342577 L41.0947493,63.397851 C41.3718493,63.4436653 41.5125586,63.4898506 41.8278048,64.116042 L42.9223499,66.3177279 C43.1906332,66.8569276 43.2219419,66.9810159 43.2219419,67.510385 L43.2219419,67.9989478 C43.2219419,69.0215169 43.2039483,69.1597019 42.6634234,69.2151614 L42.3773266,69.2426129 C42.3192075,69.2978869 42.337201,69.4499831 42.3951401,69.4820717 C42.8867228,69.468346 43.2219419,69.4499831 43.6104217,69.4499831 C43.9836071,69.4499831 44.2986734,69.468346 44.8728463,69.4820717 C44.9286261,69.4499831 44.9466196,69.2980724 44.8928191,69.2426129 L44.5378071,69.2151614 C44.0393869,69.1734276 43.9836071,69.0215169 43.9836071,67.9989478 L43.9836071,67.5014818 L43.9834271,67.5014818 Z" id="Path"></path>
                    <path d="M51.3945209,67.8734912 C51.3945209,68.9773941 51.3707135,69.1305577 50.7275339,69.1891736 L50.3988019,69.2209314 C50.3327126,69.2837212 50.3538536,69.4506768 50.4226092,69.4820717 C51.039696,69.4686427 51.3947114,69.4506768 51.8603833,69.4506768 L52.8772433,69.4506768 C54.0146638,69.4506768 55.0646636,69.4686427 55.6320406,69.4820717 C55.7880264,69.2026026 56.0956175,68.1299131 56.0956175,68.0132257 C56.0956175,67.9366439 55.8853509,67.8959939 55.8188808,67.9500729 C55.5990912,68.4816086 55.3103556,68.865062 55.0882805,68.9862863 C54.9084873,69.0811969 54.6814603,69.1303762 53.7402125,69.1303762 C52.8700059,69.1303762 52.6570728,69.0000783 52.5340364,68.8872018 C52.3331023,68.684496 52.2999624,68.4093822 52.2999624,67.7470042 L52.2999624,64.0743447 C52.2999624,62.9704418 52.3256744,62.8082045 52.9739964,62.7541255 L53.2436862,62.7361596 C53.309585,62.6864359 53.2861585,62.4969776 53.2198788,62.4701195 C52.6667862,62.4926222 52.2883444,62.4969776 51.8601929,62.4969776 C51.4179473,62.4969776 51.0395055,62.4924408 50.4224188,62.4701195 C50.3536631,62.4969776 50.3325222,62.6864359 50.3986114,62.7361596 L50.6753482,62.7541255 C51.3705231,62.8082045 51.3943304,62.9704418 51.3943304,64.0743447 L51.3943304,67.8734912 L51.3945209,67.8734912 Z" id="Path"></path>
                    <path d="M58.2433811,67.998991 C58.2433811,69.0124419 58.2271136,69.1459859 57.6515065,69.2151691 L57.4050339,69.2426198 C57.3460167,69.2978922 57.3696614,69.449984 57.4235714,69.4820717 C57.9121659,69.4683464 58.2433811,69.449984 58.6566908,69.449984 C59.0467341,69.449984 59.3800301,69.4683464 59.8661656,69.4820717 C59.9249936,69.449984 59.9437202,69.2793444 59.8826223,69.2426198 L59.6429594,69.2151691 C59.0652716,69.1459859 59.0467341,69.0124419 59.0467341,67.998991 L59.0467341,64.5952874 C59.0467341,63.5727481 59.0654608,63.4117534 59.6429594,63.3653839 L59.8826223,63.3425701 C59.9435311,63.3054746 59.9249936,63.1396574 59.8661656,63.1075697 C59.3800301,63.1212951 59.0467341,63.1396574 58.6566908,63.1396574 C58.2433811,63.1396574 57.9119767,63.1212951 57.4235714,63.1075697 C57.3696614,63.1396574 57.3460167,63.3052891 57.4050339,63.3425701 L57.6515065,63.3653839 C58.2269244,63.4117534 58.2433811,63.5727481 58.2433811,64.5952874 L58.2433811,67.998991 Z" id="Path"></path>
                    <path d="M62.874746,63.812035 C62.874746,63.4481169 62.874746,63.4253025 63.1758802,63.4253025 L63.7762376,63.4253025 C64.1914435,63.4253025 64.5137869,63.4436653 64.7275998,63.4898506 C65.2211464,63.618947 65.3443898,63.9641313 65.4250234,64.392412 C65.4915175,64.4569602 65.6289004,64.4248716 65.6573705,64.3695976 C65.643422,64.0056795 65.6290914,63.5499472 65.6290914,63.1075697 C65.5033641,63.1396583 64.9316679,63.1396583 64.2955794,63.1396583 L62.4830424,63.1396583 C62.0892369,63.1396583 61.7525629,63.1212955 61.337357,63.1075697 C61.2781238,63.1396583 61.2590163,63.3052948 61.3209245,63.342577 L61.4774149,63.3653914 C62.0491112,63.4253025 62.0705116,63.563673 62.0705116,64.5725162 L62.0705116,68.0128591 C62.0705116,69.0215169 62.0491112,69.1461616 61.4774149,69.2151614 L61.2307372,69.2426129 C61.1713129,69.2978869 61.1925222,69.4499831 61.2496536,69.4820717 C61.712246,69.468346 62.0493023,69.4499831 62.4830424,69.4499831 C62.8749371,69.4499831 63.2118022,69.468346 63.7951541,69.4820717 C63.8570623,69.4499831 63.8734948,69.2793385 63.8165545,69.2426129 L63.4796893,69.2151614 C62.8982483,69.168976 62.874746,69.0215169 62.874746,68.0128591 L62.874746,66.6909201 C62.874746,66.4377355 62.9055091,66.4286469 63.2047325,66.4286469 L63.8734948,66.4286469 C64.2508678,66.4286469 64.4952527,66.4377355 64.6326356,66.4742757 C64.8177872,66.5343723 64.9075924,66.6634686 64.9505843,66.8428309 L65.0455485,67.206749 C65.1166284,67.2712972 65.266049,67.2712972 65.3063658,67.206749 C65.3063658,66.9947417 65.266049,66.6261865 65.266049,66.2811877 C65.266049,65.9309954 65.3063658,65.5488999 65.3063658,65.3140782 C65.266049,65.2632558 65.0975209,65.2632558 65.0455485,65.3140782 L64.9576541,65.7008107 C64.8982297,65.9538098 64.8177872,66.0001806 64.7132692,66.0367208 C64.5948027,66.0784545 64.2770451,66.0921803 63.8734948,66.0921803 L63.2047325,66.0921803 C62.9057002,66.0921803 62.874746,66.0921803 62.874746,65.8345441 L62.874746,63.812035 Z" id="Path"></path>
                    <path d="M68.4928499,68.0128163 C68.4928499,69.0215035 68.4454705,69.1691524 67.9134045,69.2151536 L67.6022612,69.2426059 C67.5483466,69.2978815 67.5663181,69.4499822 67.6204142,69.4820717 C68.17499,69.4683456 68.4930315,69.4499822 68.8960292,69.4499822 L69.7394201,69.4499822 C70.5731897,69.4499822 71.407141,69.4683456 72.2523471,69.4820717 C72.3716126,69.2197908 72.6061501,68.4874817 72.6693227,68.1554571 C72.6333797,68.0634547 72.5023146,68.0406396 72.439142,68.0862698 C72.1917159,68.5839358 71.9388439,68.9157749 71.7721989,69.0124145 C71.5668878,69.1225948 71.2944105,69.1596925 70.5731897,69.1596925 C69.7526718,69.1596925 69.5520806,69.0534075 69.4371717,68.93859 C69.2883167,68.7775859 69.2592718,68.4457468 69.2592718,67.9389919 L69.2592718,66.5895621 C69.2592718,66.3456446 69.2883167,66.331362 69.5702336,66.331362 L70.1133729,66.331362 C70.4786123,66.331362 70.7038917,66.3456446 70.8345937,66.3821859 C71.02393,66.428558 71.0872842,66.5711988 71.1277655,66.7416628 L71.2132664,67.1193176 C71.255926,67.1747787 71.4162175,67.1747787 71.4521605,67.1102287 C71.4521605,66.8982152 71.4162175,66.5342865 71.4162175,66.1892777 C71.4162175,65.825349 71.4521605,65.4523314 71.4521605,65.2215835 C71.4162175,65.1523963 71.255926,65.1523963 71.2132664,65.2078574 L71.1366605,65.6044321 C71.0872842,65.8438979 71.02393,65.8991735 70.9113811,65.9448037 C70.7988322,65.9774497 70.5101987,66.0002648 70.1133729,66.0002648 L69.5702336,66.0002648 C69.2883167,66.0002648 69.2592718,66.0002648 69.2592718,65.7283385 L69.2592718,63.812241 C69.2592718,63.4483123 69.2592718,63.4254972 69.5408257,63.4254972 L70.2173899,63.4254972 C70.6296457,63.4254972 70.9293526,63.4438606 71.127947,63.4900473 C71.6122705,63.6100584 71.695956,63.95043 71.8379129,64.3926349 C71.8872892,64.4571849 72.0383226,64.4390071 72.0699089,64.3789087 C72.0383226,63.9550672 71.9773284,63.2689448 71.9212354,63.1075697 C71.8086865,63.1396593 71.2561076,63.1396593 70.6545154,63.1396593 L68.8962108,63.1396593 C68.5133629,63.1396593 68.193143,63.1212959 67.7921421,63.1075697 C67.7333262,63.1396593 67.7151732,63.3053006 67.7738075,63.3425838 L67.922481,63.3653989 C68.4748784,63.4253117 68.4930315,63.5727752 68.4930315,64.5725589 L68.4930315,68.0128163 L68.4928499,68.0128163 Z" id="Path"></path>
                    <path d="M77.7689243,67.7784532 C77.7689243,66.9047615 77.169415,66.3722579 76.5611141,66.0130279 L75.7900759,65.5426884 C75.4277515,65.3254713 74.9679718,64.9485566 74.9679718,64.4158744 C74.9679718,63.9950162 75.1699906,63.386951 76.1176081,63.386951 C77.0442756,63.386951 77.3044682,63.9950162 77.4299817,64.4383821 C77.4810476,64.4867915 77.6344322,64.4605325 77.671469,64.4071214 C77.671469,64.016988 77.5831793,63.5069921 77.4993789,63.2853091 C77.420442,63.2853091 77.2859499,63.2583356 77.1604364,63.2274322 C76.9097835,63.1522279 76.5613011,63.1075697 76.2595824,63.1075697 C75.0053827,63.1075697 74.2900867,63.8172768 74.2900867,64.6865027 C74.2900867,65.4496209 74.8521851,65.9728356 75.3375913,66.2749032 L76.254906,66.8472418 C76.95636,67.2818548 77.0446497,67.7341524 77.0446497,68.1378619 C77.0446497,68.6969817 76.6497779,69.2069776 75.8394582,69.2069776 C74.717506,69.2069776 74.3230083,68.2930936 74.1765447,67.8275772 C74.1370762,67.7697002 73.9928573,67.7918507 73.9442231,67.849549 C73.9627415,68.2886278 74.0904996,68.9404579 74.2021711,69.1448135 C74.3903478,69.2469913 74.8987617,69.4820717 75.711513,69.4820717 C76.9651516,69.4818931 77.7689243,68.7986236 77.7689243,67.7784532" id="Path"></path>
                    <path d="M82.2662507,64.00518 C82.2662507,63.7052855 82.2577833,63.6877177 82.5238996,63.6877177 L83.1589497,63.6877177 C83.6523016,63.6877177 83.9870206,63.7626026 84.1930015,63.9255039 C84.3260596,64.0225704 84.3860222,64.3664732 84.4160899,64.591128 C84.463265,64.6440088 84.6094562,64.6440088 84.6479912,64.5691239 C84.6222436,64.3002834 84.6823789,63.5597745 84.7808765,63.1764772 C84.763769,63.1496819 84.6650986,63.1322916 84.6222436,63.1541182 C84.4850382,63.3924368 84.4077953,63.4142635 83.9272308,63.4142635 L80.3118514,63.4142635 C79.8998896,63.4142635 79.6081985,63.4186998 79.5544569,63.1278553 C79.5266356,63.0927197 79.4129314,63.1102875 79.3826909,63.1278553 C79.3229012,63.4935847 79.185523,64.0798875 79.0438247,64.4892703 C79.0823597,64.5641552 79.2067777,64.6083408 79.2797005,64.55546 C79.37647,64.3221101 79.4644266,64.1237183 79.6790477,63.9253265 C79.8998896,63.7093669 80.3956607,63.6875402 80.7775548,63.6875402 L81.2665867,63.6875402 C81.5368502,63.6875402 81.5368502,63.705108 81.5368502,63.982821 L81.5368502,68.0764711 C81.5368502,69.0414573 81.4939951,69.1827095 80.9833629,69.2267177 L80.6614314,69.2529806 C80.5885086,69.3016026 80.6057889,69.4513724 80.6614314,69.4820717 C81.2323717,69.4689402 81.5453175,69.4513724 81.9018096,69.4513724 C82.2579561,69.4513724 82.5626074,69.4689402 83.0689195,69.4820717 C83.1204147,69.4513724 83.1418423,69.2881162 83.0901742,69.2529806 L82.8071233,69.2267177 C82.2793837,69.1738368 82.2662507,69.0414573 82.2662507,68.0764711 L82.2662507,64.00518 Z" id="Path"></path>
                    <path d="M89.2402311,67.5014818 C89.2402311,66.764557 89.2627185,66.6632831 89.6781072,65.9538098 L90.2635011,64.9084264 C90.7280024,64.0795018 91.0048682,63.4761249 91.4873594,63.397851 L91.7509126,63.342577 C91.8135177,63.2917546 91.8047026,63.1489325 91.7331025,63.1075697 C91.4114417,63.1212955 91.152386,63.1396583 90.8665252,63.1396583 C90.5808443,63.1396583 90.3081163,63.1212955 89.9776403,63.1075697 C89.9017226,63.1442954 89.8925477,63.2733917 89.9551529,63.342577 L90.1249783,63.3653914 C90.3482339,63.397851 90.5092442,63.4573911 90.5092442,63.5219392 C90.5092442,63.6328582 90.1695934,64.2868721 89.9105377,64.7746929 C89.6291744,65.3368926 89.3255036,65.8892616 89.0349654,66.3960018 C88.6776844,65.7373509 88.3338959,64.9867003 87.9852501,64.2731463 C87.9404551,64.1805902 87.6993893,63.6326727 87.6993893,63.5362215 C87.6993893,63.4573911 87.7661322,63.4206654 88.0879729,63.3653914 L88.2130032,63.342577 C88.2666134,63.2917546 88.2666134,63.1396583 88.1817007,63.1075697 C87.9494501,63.1212955 87.6187942,63.1396583 87.1899131,63.1396583 C86.7432219,63.1396583 86.4080686,63.1212955 86.1088953,63.1075697 C86.0462901,63.1442954 86.037475,63.2733917 86.0907254,63.342577 L86.3542786,63.397851 C86.6356419,63.4436653 86.7743446,63.4898506 87.0870104,64.116042 L88.1815208,66.3177279 C88.4495715,66.8569276 88.4806941,66.9810159 88.4806941,67.510385 L88.4806941,67.9989478 C88.4806941,69.0215169 88.4583866,69.1597019 87.9222852,69.2151614 L87.6364244,69.2426129 C87.5786766,69.2978869 87.5961269,69.4499831 87.6545943,69.4820717 C88.1457207,69.468346 88.480874,69.4499831 88.8696375,69.4499831 C89.240411,69.4499831 89.5620718,69.468346 90.1336135,69.4820717 C90.1874035,69.4499831 90.2050337,69.2980724 90.1562808,69.2426129 L89.7988199,69.2151614 C89.2940211,69.1734276 89.240411,69.0215169 89.240411,67.9989478 L89.240411,67.5014818 L89.2402311,67.5014818 Z" id="Path"></path>
                    <path d="M93.3524599,68.0128163 C93.3524599,69.0215035 93.3332389,69.159878 92.7617482,69.2151536 L92.4641086,69.2426059 C92.4075876,69.2978815 92.4262376,69.4499822 92.487897,69.4820717 C93.0407377,69.4683456 93.3526502,69.4499822 93.7639028,69.4499822 L94.6663368,69.4499822 C95.6823838,69.4499822 96.6181215,69.4683456 97.1093029,69.4820717 C97.2510813,69.2197908 97.5298805,68.2474594 97.5298805,68.1372792 C97.5298805,68.0773664 97.3410963,68.0406396 97.2798176,68.0864553 C97.0858951,68.5748469 96.8261266,68.9159604 96.6323945,69.0307779 C96.476343,69.1227803 96.2685282,69.159878 95.436698,69.159878 C94.6568215,69.159878 94.467847,69.0398668 94.3641299,68.9387755 C94.1844804,68.7543998 94.1559345,68.5102968 94.1559345,67.9026361 L94.1559345,64.5725589 C94.1559345,63.5636862 94.1751554,63.4117711 94.7561615,63.3653989 L94.9970897,63.3425838 C95.0538011,63.3054861 95.0302031,63.1396593 94.973682,63.1075697 C94.48212,63.1212959 94.1513671,63.1396593 93.7640931,63.1396593 C93.3716809,63.1396593 93.040928,63.1212959 92.4880873,63.1075697 C92.4264279,63.1396593 92.4077779,63.3053006 92.4642989,63.3425838 L92.7147424,63.3653989 C93.3336196,63.4117711 93.3528405,63.5636862 93.3528405,64.5725589 L93.3528405,68.0128163 L93.3524599,68.0128163 Z" id="Path"></path>
                    <path d="M99.0916338,68.0128163 C99.0916338,69.0215035 99.0466542,69.1691524 98.5107085,69.2151536 L98.1998418,69.2426059 C98.1459752,69.2978815 98.1639307,69.4499822 98.2179787,69.4820717 C98.7720614,69.4683456 99.0916338,69.4499822 99.4924595,69.4499822 L100.334919,69.4499822 C101.172663,69.4499822 102.001339,69.4683456 102.847788,69.4820717 C102.964953,69.2197908 103.203453,68.4874817 103.266932,68.1554571 C103.226124,68.0634547 103.095538,68.0406396 103.032422,68.0862698 C102.789387,68.5839358 102.53275,68.9157749 102.366072,69.0124145 C102.163301,69.1225948 101.888527,69.1596925 101.172663,69.1596925 C100.34834,69.1596925 100.149923,69.0534075 100.037474,68.93859 C99.8889324,68.7775859 99.8571928,68.4457468 99.8571928,67.9389919 L99.8571928,66.5895621 C99.8571928,66.3456446 99.8889324,66.331362 100.163525,66.331362 L100.708539,66.331362 C101.077807,66.331362 101.298352,66.3456446 101.433653,66.3821859 C101.618287,66.428558 101.685938,66.5711988 101.726202,66.7416628 L101.807274,67.1193176 C101.852435,67.1747787 102.009863,67.1747787 102.05049,67.1102287 C102.05049,66.8982152 102.009863,66.5342865 102.009863,66.1892777 C102.009863,65.825349 102.05049,65.4523314 102.05049,65.2215835 C102.009863,65.1523963 101.852435,65.1523963 101.807274,65.2078574 L101.730736,65.6044321 C101.685756,65.8438979 101.618106,65.8991735 101.505657,65.9448037 C101.393027,65.9774497 101.104831,66.0002648 100.708358,66.0002648 L100.163344,66.0002648 C99.8885697,66.0002648 99.8570115,66.0002648 99.8570115,65.7283385 L99.8570115,63.812241 C99.8570115,63.4483123 99.8570115,63.4254972 100.140854,63.4254972 L100.816454,63.4254972 C101.221633,63.4254972 101.523612,63.4438606 101.726202,63.4900473 C102.208281,63.6100584 102.293887,63.95043 102.43336,64.3926349 C102.482692,64.4571849 102.631415,64.4390071 102.663154,64.3789087 C102.631415,63.9550672 102.573195,63.2689448 102.514432,63.1075697 C102.406336,63.1396593 101.852616,63.1396593 101.253554,63.1396593 L99.4924595,63.1396593 C99.1097707,63.1396593 98.7900169,63.1212959 98.3890098,63.1075697 C98.330609,63.1396593 98.3171876,63.3053006 98.3710543,63.3425838 L98.5195956,63.3653989 C99.0736782,63.4253117 99.0914524,63.5727752 99.0914524,64.5725589 L99.0914524,68.0128163 L99.0916338,68.0128163 Z" id="Path"></path>
                    <path d="M108.764541,67.8734912 C108.764541,68.9773941 108.740729,69.1305577 108.102191,69.1891736 L107.766159,69.2209314 C107.70482,69.2837212 107.723298,69.4506768 107.794352,69.4820717 C108.409459,69.4686427 108.76435,69.4506768 109.227823,69.4506768 L110.244683,69.4506768 C111.389555,69.4506768 112.43937,69.4686427 113.002853,69.4820717 C113.153915,69.2026026 113.466135,68.1299131 113.466135,68.0132257 C113.466135,67.9366439 113.253353,67.8959939 113.192014,67.9500729 C112.965135,68.4816086 112.676345,68.865062 112.45861,68.9862863 C112.283736,69.0811969 112.047523,69.1303762 111.110671,69.1303762 C110.235539,69.1303762 110.027519,69.0000783 109.908841,68.8872018 C109.701202,68.684496 109.672628,68.4093822 109.672628,67.7470042 L109.672628,64.0743447 C109.672628,62.9704418 109.696059,62.8082045 110.344121,62.7541255 L110.613861,62.7361596 C110.675201,62.6864359 110.656723,62.4969776 110.590049,62.4701195 C110.036472,62.4926222 109.658341,62.4969776 109.228014,62.4969776 C108.787781,62.4969776 108.409459,62.4924408 107.794543,62.4701195 C107.723488,62.4969776 107.70482,62.6864359 107.766349,62.7361596 L108.045805,62.7541255 C108.740729,62.8082045 108.764541,62.9704418 108.764541,64.0743447 L108.764541,67.8734912 Z" id="Path"></path>
                    <path d="M115.665203,68.0128163 C115.665203,69.0215035 115.620587,69.1691524 115.084647,69.2151536 L114.773602,69.2426059 C114.719736,69.2978815 114.73751,69.4499822 114.791739,69.4820717 C115.345815,69.4683456 115.665203,69.4499822 116.070921,69.4499822 L116.908656,69.4499822 C117.741857,69.4499822 118.575058,69.4683456 119.421861,69.4820717 C119.538843,69.2197908 119.772988,68.4874817 119.840637,68.1554571 C119.79983,68.0634547 119.669608,68.0406396 119.60613,68.0862698 C119.363098,68.5839358 119.106645,68.9157749 118.935615,69.0124145 C118.732666,69.1225948 118.462791,69.1596925 117.741857,69.1596925 C116.917906,69.1596925 116.71949,69.0534075 116.611577,68.93859 C116.458503,68.7775859 116.431298,68.4457468 116.431298,67.9389919 L116.431298,66.5895621 C116.431298,66.3456446 116.458503,66.331362 116.742342,66.331362 L117.278282,66.331362 C117.647365,66.331362 117.872623,66.3456446 118.00756,66.3821859 C118.192191,66.428558 118.255489,66.5711988 118.291218,66.7416628 L118.381176,67.1193176 C118.421984,67.1747787 118.579592,67.1747787 118.620218,67.1102287 C118.620218,66.8982152 118.57941,66.5342865 118.57941,66.1892777 C118.57941,65.825349 118.620218,65.4523314 118.620218,65.2215835 C118.57941,65.1523963 118.421802,65.1523963 118.381176,65.2078574 L118.300105,65.6044321 C118.255489,65.8438979 118.19201,65.8991735 118.079744,65.9448037 C117.967115,65.9774497 117.678741,66.0002648 117.278101,66.0002648 L116.742161,66.0002648 C116.458503,66.0002648 116.431116,66.0002648 116.431116,65.7283385 L116.431116,63.812241 C116.431116,63.4483123 116.431116,63.4254972 116.710241,63.4254972 L117.386196,63.4254972 C117.796086,63.4254972 118.097881,63.4438606 118.291218,63.4900473 C118.782542,63.6100584 118.867965,63.95043 119.007437,64.3926349 C119.052416,64.4571849 119.200774,64.4390071 119.237048,64.3789087 C119.200956,63.9550672 119.147089,63.2689448 119.088689,63.1075697 C118.980232,63.1396593 118.421984,63.1396593 117.827281,63.1396593 L116.070921,63.1396593 C115.683702,63.1396593 115.363952,63.1212959 114.963312,63.1075697 C114.904912,63.1396593 114.886775,63.3053006 114.945175,63.3425838 L115.093534,63.3653989 C115.642895,63.4253117 115.665203,63.5727752 115.665203,64.5725589 L115.665203,68.0128163 Z" id="Path"></path>
                    <path d="M125.021804,68.5558605 C125.099826,68.7774526 125.150299,68.9491955 125.150299,69.048348 C125.150299,69.1436799 125.016997,69.2020797 124.815471,69.2202729 L124.539622,69.2471987 C124.466407,69.2970478 124.480088,69.4460494 124.55811,69.4820717 C124.83359,69.4731571 125.200958,69.4505976 125.655592,69.4505976 C126.087116,69.4505976 126.422129,69.4686088 126.807801,69.4820717 C126.862712,69.4460494 126.872141,69.2972297 126.807801,69.2471987 L126.555062,69.2202729 C126.142397,69.174972 126.018153,69.0303368 125.742858,68.2263832 L124.438489,64.4451272 C124.291505,64.033781 124.140268,63.6046055 124.016395,63.1888929 C123.997906,63.1210326 123.924691,63.1075697 123.86941,63.1075697 C123.768278,63.2296455 123.60299,63.39211 123.378354,63.4601522 C123.401095,63.6137021 123.346184,63.7896294 123.212881,64.1331153 L122.23502,66.6674156 C121.839919,67.7158846 121.573868,68.330084 121.399336,68.7592594 C121.261781,69.0981971 121.054894,69.2020797 120.825265,69.2202729 L120.513548,69.2471987 C120.453645,69.2970478 120.476386,69.4460494 120.531667,69.4820717 C120.788843,69.4731571 121.132915,69.4505976 121.449995,69.4505976 C121.8952,69.4686088 122.188798,69.4686088 122.441537,69.4820717 C122.524181,69.4460494 122.524181,69.2972297 122.459656,69.2471987 L122.142947,69.2202729 C121.913688,69.2018978 121.867467,69.1436799 121.867467,69.0303368 C121.867467,68.9266361 121.932177,68.6779362 122.074354,68.2487608 L122.414174,67.2686979 C122.478145,67.0652989 122.538048,67.0423756 122.776735,67.0423756 L124.213483,67.0423756 C124.502644,67.0423756 124.539622,67.0652989 124.608584,67.2776125 L125.021804,68.5558605 Z M123.318451,64.8109906 C123.424205,64.5219021 123.520716,64.2955798 123.548079,64.2506428 L123.566567,64.2506428 C123.626101,64.3632582 123.70893,64.6165063 123.787136,64.8468311 L124.300934,66.3737788 C124.383578,66.6270269 124.364904,66.6674156 124.089979,66.6674156 L122.918912,66.6674156 C122.648424,66.6674156 122.643433,66.6539527 122.717017,66.4416391 L123.318451,64.8109906 Z" id="Shape"></path>
                    <path d="M130.071214,64.00518 C130.071214,63.7052855 130.062401,63.6877177 130.32869,63.6877177 L130.963567,63.6877177 C131.452599,63.6877177 131.791465,63.7626026 131.997619,63.9255039 C132.130677,64.0225704 132.195133,64.3664732 132.221053,64.591128 C132.263563,64.6440088 132.422196,64.6440088 132.452263,64.5691239 C132.426688,64.3002834 132.490798,63.5597745 132.589641,63.1764772 C132.568387,63.1496819 132.469889,63.1322916 132.426688,63.1541182 C132.29363,63.3924368 132.212413,63.4142635 131.731849,63.4142635 L128.118543,63.4142635 C127.706754,63.4142635 127.415235,63.4186998 127.363567,63.1278553 C127.337647,63.0927197 127.217722,63.1102875 127.192147,63.1278553 C127.127692,63.4935847 126.998781,64.0798875 126.85259,64.4892703 C126.89147,64.5641552 127.015888,64.6083408 127.084491,64.55546 C127.183334,64.3221101 127.273537,64.1237183 127.483838,63.9253265 C127.706927,63.7093669 128.195958,63.6875402 128.582345,63.6875402 L129.071723,63.6875402 C129.341641,63.6875402 129.341641,63.705108 129.341641,63.982821 L129.341641,68.0764711 C129.341641,69.0414573 129.298786,69.1827095 128.788153,69.2267177 L128.470542,69.2529806 C128.397619,69.3016026 128.410752,69.4513724 128.470542,69.4820717 C129.037162,69.4689402 129.350108,69.4513724 129.71092,69.4513724 C130.062574,69.4513724 130.367398,69.4689402 130.87371,69.4820717 C130.929352,69.4513724 130.946633,69.2881162 130.89099,69.2529806 L130.607767,69.2267177 C130.092814,69.1738368 130.071387,69.0414573 130.071387,68.0764711 L130.071387,64.00518 L130.071214,64.00518 Z" id="Path"></path>
                    <path d="M138.756015,66.3596471 C139.220399,66.3596471 139.243394,66.3824615 139.243394,66.6634686 L139.243394,68.0128591 C139.220399,69.0215169 139.243394,69.1370729 138.654128,69.2151614 L138.468299,69.2426129 C138.412401,69.2978869 138.43147,69.4499831 138.486994,69.4820717 C138.909501,69.468346 139.257789,69.4499831 139.656928,69.4499831 C140.033071,69.4499831 140.357617,69.468346 140.817327,69.4820717 C140.882759,69.4499831 140.896594,69.2793385 140.845369,69.2426129 L140.608317,69.2151614 C140.051205,69.1459761 140.032884,69.0215169 140.032884,68.0128591 L140.032884,64.5725162 C140.032884,63.563673 140.051205,63.4208509 140.608317,63.3653914 L140.807979,63.342577 C140.868177,63.3054803 140.849669,63.1396583 140.789284,63.1075697 C140.357243,63.1212955 140.032697,63.1396583 139.656554,63.1396583 C139.257415,63.1396583 138.932496,63.1212955 138.48662,63.1075697 C138.431096,63.1396583 138.412214,63.3052948 138.467925,63.342577 L138.653754,63.3653914 C139.220025,63.4206654 139.24302,63.563673 139.24302,64.5725162 L139.24302,65.6683511 C139.24302,65.963084 139.220025,65.9773662 138.755641,65.9773662 L135.998128,65.9773662 C135.534118,65.9773662 135.515423,65.963084 135.515423,65.6683511 L135.515423,64.5725162 C135.515423,63.563673 135.534118,63.4208509 136.091229,63.3653914 L136.276684,63.342577 C136.332208,63.3054803 136.313887,63.1396583 136.257989,63.1075697 C135.840342,63.1212955 135.515236,63.1396583 135.13928,63.1396583 C134.721633,63.1396583 134.391853,63.1168439 133.922609,63.1075697 C133.862785,63.1396583 133.839416,63.3052948 133.899988,63.342577 L134.150501,63.3653914 C134.651901,63.4071251 134.721633,63.563673 134.721633,64.5725162 L134.721633,68.0128591 C134.721633,69.0215169 134.707425,69.1227907 134.164709,69.2151614 L133.997202,69.2426129 C133.941677,69.2978869 133.964672,69.4499831 134.015897,69.4820717 C134.39204,69.472983 134.721633,69.4499831 135.139466,69.4499831 C135.51561,69.4499831 135.840529,69.468346 136.365298,69.4820717 C136.420448,69.4499831 136.43933,69.2793385 136.383993,69.2426129 L136.100577,69.2151614 C135.561974,69.1598874 135.51561,69.0215169 135.51561,68.0128591 L135.51561,66.6634686 C135.51561,66.3824615 135.534305,66.3596471 135.998315,66.3596471 L138.756015,66.3596471 Z" id="Path"></path>
                    <path d="M143.071936,68.0128163 C143.071936,69.0215035 143.026553,69.1691524 142.490488,69.2151536 L142.183879,69.2426059 C142.129964,69.2978815 142.148118,69.4499822 142.202033,69.4820717 C142.756614,69.4683456 143.072118,69.4499822 143.477662,69.4499822 L144.320517,69.4499822 C145.15012,69.4499822 145.988619,69.4683456 146.831474,69.4820717 C146.953101,69.2197908 147.187823,68.4874817 147.250996,68.1554571 C147.214871,68.0634547 147.088343,68.0406396 147.020813,68.0862698 C146.772658,68.5839358 146.520509,68.9157749 146.353499,69.0124145 C146.146008,69.1225948 145.875887,69.1596925 145.15012,69.1596925 C144.329594,69.1596925 144.131179,69.0534075 144.01881,68.93859 C143.869953,68.7775859 143.842905,68.4457468 143.842905,67.9389919 L143.842905,66.5895621 C143.842905,66.3456446 143.869772,66.331362 144.15387,66.331362 L144.694837,66.331362 C145.059717,66.331362 145.281005,66.3456446 145.411346,66.3821859 C145.605222,66.428558 145.668396,66.5711988 145.704521,66.7416628 L145.790022,67.1193176 C145.839581,67.1747787 145.997514,67.1747787 146.033639,67.1102287 C146.033639,66.8982152 145.997514,66.5342865 145.997514,66.1892777 C145.997514,65.825349 146.033639,65.4523314 146.033639,65.2215835 C145.997514,65.1523963 145.839762,65.1523963 145.790022,65.2078574 L145.713416,65.6044321 C145.668396,65.8438979 145.605222,65.8991735 145.488315,65.9448037 C145.379759,65.9774497 145.086947,66.0002648 144.694837,66.0002648 L144.15387,66.0002648 C143.869953,66.0002648 143.842905,66.0002648 143.842905,65.7283385 L143.842905,63.812241 C143.842905,63.4483123 143.842905,63.4254972 144.122283,63.4254972 L144.798492,63.4254972 C145.208755,63.4254972 145.510462,63.4438606 145.704702,63.4900473 C146.191209,63.6100584 146.277256,63.95043 146.421211,64.3926349 C146.462056,64.4571849 146.615088,64.4390071 146.655569,64.3789087 C146.615088,63.9550672 146.560991,63.2689448 146.502356,63.1075697 C146.389624,63.1396593 145.839762,63.1396593 145.235441,63.1396593 L143.47748,63.1396593 C143.089908,63.1396593 142.769503,63.1212959 142.368498,63.1075697 C142.314583,63.1396593 142.296248,63.3053006 142.350345,63.3425838 L142.499201,63.3653989 C143.053783,63.4253117 143.071755,63.5727752 143.071755,64.5725589 L143.071755,68.0128163 L143.071936,68.0128163 Z" id="Path"></path>
                    <path d="M149.955311,67.9531294 C149.955311,68.9495805 149.938319,69.0727168 149.41711,69.1408816 L149.197599,69.1680009 C149.141767,69.2407466 149.158933,69.3728615 149.214938,69.4045618 C149.636621,69.3910022 149.955311,69.3728615 150.334168,69.3728615 C150.687016,69.3728615 150.993222,69.3910022 151.397913,69.4045618 C151.453745,69.3728615 151.470737,69.2183915 151.415252,69.1680009 L151.225564,69.1408816 C150.704355,69.0637381 150.687189,68.9495805 150.687189,67.9531294 L150.687189,66.7657437 C150.687189,66.5698618 150.704528,66.5563021 151.113901,66.5563021 C151.47091,66.5563021 151.61309,66.6517694 151.746773,66.8566301 C152.026451,67.2888897 152.392303,67.9395698 152.620484,68.2901051 C153.257864,69.245694 153.718387,69.4820717 154.475926,69.4820717 C154.643941,69.4820717 154.790802,69.4639311 154.872468,69.4324141 C154.915469,69.3957664 154.906973,69.3230207 154.859638,69.3004823 C154.618106,69.2823417 154.398768,69.1775293 154.243931,69.0316714 C153.63672,68.4949658 153.16302,67.7348923 152.443973,66.5158064 C152.400972,66.4430607 152.357972,66.3472269 152.400972,66.2924386 C152.84433,66.106085 153.516215,65.6146393 153.516215,64.7138387 C153.516215,64.0539967 153.206367,63.626318 152.775667,63.394338 C152.36248,63.1482487 151.836936,63.1075697 151.281916,63.1075697 C150.403177,63.1075697 149.78747,63.13927 149.283947,63.1804987 C149.215284,63.2211776 149.215284,63.3714332 149.275451,63.4168764 L149.563971,63.4531576 C149.933811,63.498784 149.955485,63.666997 149.955485,64.5593686 L149.955485,67.9531294 L149.955311,67.9531294 Z M150.687016,63.6942995 C150.687016,63.4392315 150.717185,63.4029502 151.272553,63.4029502 C152.267462,63.4029502 152.702324,64.1034711 152.702324,64.8545659 C152.702324,65.5006649 152.495816,65.8235312 152.254631,66.0329729 C151.996281,66.2332526 151.655917,66.2739315 151.333239,66.2739315 C150.881212,66.2739315 150.747702,66.2557909 150.717185,66.2286716 C150.687016,66.1920239 150.687016,66.082997 150.687016,65.9188153 L150.687016,63.6942995 Z" id="Shape"></path>
                    <path d="M159.36255,67.7784532 C159.36255,66.9047615 158.76348,66.3722579 158.155625,66.0130279 L157.380292,65.5426884 C157.027579,65.3254713 156.558791,64.9485566 156.558791,64.4158744 C156.558791,63.9950162 156.762904,63.386951 157.709827,63.386951 C158.638245,63.386951 158.89806,63.9950162 159.023669,64.4383821 C159.06965,64.4867915 159.227409,64.4605325 159.260306,64.4071214 C159.260306,64.016988 159.176754,63.5069921 159.088342,63.2853091 C159.013949,63.2853091 158.874696,63.2583356 158.749648,63.2274322 C158.498805,63.1522279 158.155625,63.1075697 157.853754,63.1075697 C156.600473,63.1075697 155.885702,63.8172768 155.885702,64.6865027 C155.885702,65.4496209 156.447575,65.9728356 156.930195,66.2749032 L157.844782,66.8472418 C158.55002,67.2818548 158.638432,67.7341524 158.638432,68.1378619 C158.638432,68.6969817 158.23899,69.2069776 157.431507,69.2069776 C156.312621,69.2069776 155.913926,68.2930936 155.774486,67.8275772 C155.728504,67.7697002 155.589064,67.7918507 155.537849,67.849549 C155.556166,68.2886278 155.686448,68.9404579 155.802523,69.1448135 C155.983646,69.2469913 156.49879,69.4820717 157.306273,69.4820717 C158.563852,69.4818931 159.36255,68.7986236 159.36255,67.7784532" id="Path"></path>
                </g>
            </g>
        </g>
    </g>
</svg>