<?xml version="1.0" encoding="UTF-8"?>
<svg width="45px" height="45px" viewBox="0 0 45 45" version="1.1" xmlns="http://www.w3.org/2000/svg" xmlns:xlink="http://www.w3.org/1999/xlink">
    <!-- Generator: Sketch 53.2 (72643) - https://sketchapp.com -->
    <title>Fill 1</title>
    <desc>Created with Sketch.</desc>
    <g id="Page-1" stroke="none" stroke-width="1" fill="none" fill-rule="evenodd" opacity="0.895531064">
        <g id="00_index_a-1" transform="translate(-1038.000000, -688.000000)" fill="#FFFFFF">
            <path d="M1066.56912,702.049219 L1063.63448,702.049219 C1063.05619,702.049219 1062.46915,702.644623 1062.46915,703.095537 L1062.46915,706.089538 L1066.56912,706.089538 C1066.40745,708.386235 1066.06725,710.48723 1066.06725,710.48723 L1062.45217,710.48723 L1062.45217,723.510012 L1057.05929,723.510012 L1057.05929,710.478738 L1054.43088,710.478738 L1054.43088,706.098161 L1057.05929,706.098161 L1057.05929,702.516985 C1057.05929,701.862074 1056.92322,697.481431 1062.57131,697.489988 L1066.56912,697.489976 L1066.56912,702.049219 Z M1060.49993,688 C1048.07357,688 1038,698.073543 1038,710.500066 C1038,722.926391 1048.07357,733 1060.49993,733 C1072.92636,733 1083,722.926391 1083,710.500066 C1083,698.073543 1072.92636,688 1060.49993,688 L1060.49993,688 Z" id="Fill-1"></path>
        </g>
    </g>
</svg>