<?xml version="1.0" encoding="UTF-8"?>
<svg width="45px" height="45px" viewBox="0 0 45 45" version="1.1" xmlns="http://www.w3.org/2000/svg" xmlns:xlink="http://www.w3.org/1999/xlink">
    <!-- Generator: Sketch 53.2 (72643) - https://sketchapp.com -->
    <title>Group 17</title>
    <desc>Created with Sketch.</desc>
    <g id="Page-1" stroke="none" stroke-width="1" fill="none" fill-rule="evenodd" opacity="0.895531064">
        <g id="00_index_a-1" transform="translate(-917.000000, -688.000000)" fill="#FFFFFF">
            <g id="Group-17" transform="translate(917.000000, 688.000000)">
                <path d="M22.5001645,17.6351351 C19.8134083,17.6351351 17.6351351,19.8131019 17.6351351,22.4999671 C17.6351351,25.1868981 19.8134083,27.3648649 22.5001645,27.3648649 C25.1869864,27.3648649 27.3648649,25.1868981 27.3648649,22.4999671 C27.3648649,19.8131019 25.1869864,17.6351351 22.5001645,17.6351351" id="Fill-5"></path>
                <path d="M30.5249321,16.3615452 C29.5665457,16.3615452 28.789014,15.5648661 28.789014,14.5811539 C28.789014,13.5974417 29.5665457,12.8004951 30.5249321,12.8004951 C31.4840356,12.8004951 32.2609153,13.5974417 32.2609153,14.5811539 C32.2609153,15.5648661 31.4840356,16.3615452 30.5249321,16.3615452 M22.8041844,30.1182024 C18.7019648,30.1182024 15.3765596,26.707073 15.3765596,22.4999331 C15.3765596,18.2927933 18.7019648,14.8816639 22.8041844,14.8816639 C26.9060781,14.8816639 30.2318744,18.2927933 30.2318744,22.4999331 C30.2318744,26.707073 26.9060781,30.1182024 22.8041844,30.1182024 M34.0802195,13.7510402 C33.8174782,13.0584763 33.5038838,12.5645139 32.9982861,12.0450743 C32.4911236,11.5258353 32.009453,11.2041278 31.3342796,10.9353806 C30.8250961,10.7318978 30.0588433,10.4906339 28.6491678,10.4247009 C27.1235732,10.3530171 26.6660252,10.3378378 22.8041844,10.3378378 C18.9420829,10.3378378 18.4847305,10.3530171 16.9593315,10.4247009 C15.54933,10.4906339 14.783338,10.7318978 14.2737633,10.9353806 C13.5982639,11.2041278 13.1165281,11.5258353 12.6106044,12.0450743 C12.1042243,12.5645139 11.7909559,13.0584763 11.5282146,13.7510402 C11.330148,14.273957 11.0946588,15.0591346 11.03031,16.5058488 C10.9607455,18.0697178 10.9459459,18.5390724 10.9459459,22.4999331 C10.9459459,26.4615294 10.9607455,26.9301485 11.03031,28.494753 C11.0946588,29.9413335 11.3305392,30.7273135 11.5282146,31.2496285 C11.7909559,31.9421924 12.1045503,32.4367566 12.6106044,32.9553938 C13.1165281,33.4741647 13.5985899,33.7957385 14.2737633,34.0652881 C14.783338,34.2681022 15.54933,34.509968 16.9593315,34.5765696 C18.4844697,34.6476516 18.9416918,34.6621622 22.8041844,34.6621622 C26.6660252,34.6621622 27.1235732,34.6476516 28.6491678,34.5765696 C30.0588433,34.509968 30.8250961,34.2681022 31.3342796,34.0652881 C32.009453,33.7957385 32.4918408,33.4741647 32.9982861,32.9553938 C33.5038838,32.4361548 33.8174782,31.9421924 34.0802195,31.2496285 C34.2778949,30.7273135 34.5139057,29.9413335 34.5774069,28.494753 C34.6480146,26.9309509 34.6621622,26.4615294 34.6621622,22.4999331 C34.6621622,18.5390724 34.6480146,18.0697178 34.5774069,16.5058488 C34.5139057,15.0591346 34.2778949,14.273957 34.0802195,13.7510402" id="Fill-7"></path>
                <path d="M37.0161715,28.521238 C36.945605,30.0757451 36.6981612,31.1368121 36.3372976,32.0660275 C35.9643876,33.0265108 35.4644973,33.8409237 34.6523237,34.6524402 C33.8408084,35.464615 33.0265283,35.9644402 32.0659806,36.3374166 C31.1368982,36.6982149 30.0757011,36.9455932 28.5212621,37.0162915 C26.9639268,37.0867265 26.466143,37.1039732 22.4999342,37.1039732 C18.533857,37.1039732 18.0364682,37.0867265 16.4787379,37.0162915 C14.9245623,36.9455932 13.8628385,36.6982149 12.9340194,36.3374166 C11.9734717,35.9644402 11.1591258,35.464615 10.3472813,34.6524402 C9.53543687,33.8409237 9.03594155,33.0265108 8.66263659,32.0660275 C8.30183877,31.1368121 8.05472418,30.0757451 7.9838285,28.521238 C7.91286699,26.9639004 7.8960811,26.4661817 7.8960811,22.4999671 C7.8960811,18.5337525 7.91286699,18.0362312 7.9838285,16.478762 C8.05472418,14.9241891 8.30183877,13.8629904 8.66263659,12.9339725 C9.03594155,11.9734234 9.53543687,11.159208 10.3472813,10.3476914 C11.1591258,9.53551665 11.9734717,9.03549397 12.9340194,8.66264926 C13.8628385,8.30178508 14.9245623,8.05440683 16.4787379,7.98370852 C18.0364682,7.91314187 18.533857,7.89602682 22.4999342,7.89602682 C26.466143,7.89602682 26.9639268,7.91314187 28.5212621,7.98370852 C30.0757011,8.05440683 31.1368982,8.30178508 32.0659806,8.66264926 C33.0265283,9.03549397 33.8408084,9.53551665 34.6523237,10.3476914 C35.4644973,11.159208 35.9643876,11.9734234 36.3372976,12.9339725 C36.6981612,13.8629904 36.945605,14.9241891 37.0161715,16.478762 C37.0867381,18.0362312 37.1039189,18.5337525 37.1039189,22.4999671 C37.1039189,26.4661817 37.0867381,26.9639004 37.0161715,28.521238 M22.5003291,0 C10.0735068,0 0,10.0734557 0,22.500362 C0,34.9265443 10.0735068,45 22.5003291,45 C34.9264932,45 45,34.9265443 45,22.500362 C45,10.0734557 34.9264932,0 22.5003291,0" id="Fill-9"></path>
            </g>
        </g>
    </g>
</svg>