<?xml version="1.0" encoding="UTF-8"?>
<svg width="45px" height="45px" viewBox="0 0 45 45" version="1.1" xmlns="http://www.w3.org/2000/svg" xmlns:xlink="http://www.w3.org/1999/xlink">
    <!-- Generator: Sketch 57.1 (83088) - https://sketch.com -->
    <title>形狀</title>
    <desc>Created with Sketch.</desc>
    <g id="Page-1" stroke="none" stroke-width="1" fill="none" fill-rule="evenodd" opacity="0.9">
        <g id="00_index_a-1" transform="translate(-10.000000, -873.000000)" fill="#FFFFFF" fill-rule="nonzero">
            <path d="M32.5,873 C20.074375,873 10,883.074375 10,895.5 C10,907.925625 20.074375,918 32.5,918 C44.925625,918 55,907.925625 55,895.5 C55,883.074375 44.925625,873 32.5,873 Z M28.75,903 L25,903 L25,891.75 L28.75,891.75 L28.75,903 Z M26.875,890.079375 C25.736875,890.079375 24.8125,889.149375 24.8125,888 C24.8125,886.8525 25.735,885.920625 26.875,885.920625 C28.015,885.920625 28.9375,886.8525 28.9375,888 C28.9375,889.149375 28.013125,890.079375 26.875,890.079375 Z M41.875,903 L38.12875,903 L38.12875,897.635625 C38.12875,894.10875 34.375,894.406875 34.375,897.635625 L34.375,903 L30.625,903 L30.625,891.75 L34.375,891.75 L34.375,893.799375 C36.01,890.769375 41.875,890.544375 41.875,896.701875 L41.875,903 Z" id="形狀"></path>
        </g>
    </g>
</svg>