<svg xmlns="http://www.w3.org/2000/svg" viewBox="0 0 14.51 19.63"><defs><style>.cls-1{fill:#fff;}</style></defs><title>資產 5</title><g id="圖層_2" data-name="圖層 2"><g id="圖層_1-2" data-name="圖層 1"><path class="cls-1" d="M14.48,6.62a7.65,7.65,0,0,0-2.09-4.57A7,7,0,0,0,8.32,0,8.93,8.93,0,0,0,4.19.83a6.52,6.52,0,0,0-3,2.53A8.47,8.47,0,0,0,0,7.25c-.14,2.12,1,3.9,2.13,5.6a60.35,60.35,0,0,0,5.27,6.78,31.49,31.49,0,0,0,2.26-2.36A24.2,24.2,0,0,0,13.14,12a10.15,10.15,0,0,0,1.34-5.39M7.26,10.33a2.87,2.87,0,1,1,2.86-2.86,2.86,2.86,0,0,1-2.86,2.86"/></g></g></svg>