<svg xmlns="http://www.w3.org/2000/svg" viewBox="0 0 16.64 10.24"><defs><style>.cls-1{fill:#fff;}</style></defs><title>資產 4</title><g id="圖層_2" data-name="圖層 2"><g id="圖層_1-2" data-name="圖層 1"><path class="cls-1" d="M16.63,9.32V1c0-.83-.92-1-.92-1H1.23C0,0,0,.88,0,.88V9.32a.87.87,0,0,0,.92.92h15c.83,0,.7-.92.7-.92M15,9.56c-.29-.12-4.61-4-4.61-4L8.78,6.88s-.32.55-.87,0L6.36,5.51,2.07,9.36s-.72.23-.52-.56L5.84,5.12l-4.58-4,.41-.5L8.2,6.35,14.77.84s.64-.12.61.44L10.89,5.16l4.49,3.91s-.09.61-.38.49"/></g></g></svg>