<svg xmlns="http://www.w3.org/2000/svg" viewBox="0 0 9.65 14.15"><defs><style>.cls-1{fill:#fff;}</style></defs><title>資產 3</title><g id="圖層_2" data-name="圖層 2"><g id="圖層_1-2" data-name="圖層 1"><path class="cls-1" d="M8.35,14l-2-3.79s1.44-1,1.68-.38l1.42,2.68s.4.58,0,1A9.78,9.78,0,0,1,8.35,14"/><path class="cls-1" d="M3.34,4.36l-2-3.8S2.81-.4,3.05.19L4.46,2.86s.4.59,0,1a12.34,12.34,0,0,1-1.12.53"/><path class="cls-1" d="M3,4.49,1,.67S-.36,1.9.09,4.84a16.94,16.94,0,0,0,3.37,7A5.47,5.47,0,0,0,8,14.14L6.1,10.34a.58.58,0,0,1-.77-.16A20.07,20.07,0,0,1,2.74,5.74s-.32-1,.26-1.25"/></g></g></svg>