<?xml version="1.0" encoding="UTF-8"?>
<svg width="45px" height="45px" viewBox="0 0 45 45" version="1.1" xmlns="http://www.w3.org/2000/svg" xmlns:xlink="http://www.w3.org/1999/xlink">
    <!-- Generator: Sketch 53.2 (72643) - https://sketchapp.com -->
    <title>Fill 3</title>
    <desc>Created with Sketch.</desc>
    <g id="Page-1" stroke="none" stroke-width="1" fill="none" fill-rule="evenodd" opacity="0.895531064">
        <g id="00_index_a-1" transform="translate(-978.000000, -688.000000)" fill="#FFFFFF">
            <path d="M1007.53526,722.182137 C1006.17449,722.626469 1004.81371,722.867132 1003.41594,722.904193 C1002.33289,722.904193 1001.25905,722.783861 1000.25934,722.506137 C997.78773,721.913695 996.389959,720.312258 996.065959,717.636987 L996.065959,717.275992 C996.065959,717.1186 996.065959,713.962002 996.019682,707.843193 L993.464739,707.843193 L993.464739,703.492429 C993.983126,703.52949 994.464519,703.492429 994.982907,703.251766 C996.741673,702.492716 997.778448,701.094881 998.139509,699.095389 C998.139509,698.975057 998.176504,698.891786 998.213565,698.771389 C998.213565,698.530726 998.259841,698.299344 998.333897,698.095676 L1001.8145,698.095676 L1001.8145,703.492429 L1007.37787,703.492429 L1007.37787,707.843193 L1001.82372,707.843193 L1001.82372,714.637781 C1001.82372,715.285715 1001.89777,715.961494 1002.0181,716.600213 C1002.05516,716.766821 1002.17549,716.924213 1002.25883,717.044544 C1003.10122,717.840655 1004.138,718.081318 1005.37837,717.720323 C1006.00788,717.516655 1006.73915,717.322268 1007.53526,717.081605 L1007.53526,722.182137 Z M1000.49987,688 C988.073573,688 978,698.073558 978,710.500033 C978,722.926442 988.073573,733 1000.49987,733 C1012.92636,733 1023,722.926442 1023,710.500033 C1023,698.073558 1012.92636,688 1000.49987,688 L1000.49987,688 Z" id="Fill-3"></path>
        </g>
    </g>
</svg>